<mxfile host="app.diagrams.net" modified="2023-07-04T07:56:56.994Z" agent="Mozilla/5.0 (Windows NT 10.0; Win64; x64) AppleWebKit/537.36 (KHTML, like Gecko) Chrome/114.0.0.0 Safari/537.36 Edg/114.0.1823.67" etag="6IDaHUsAZnjcB2ctFjtr" version="21.5.1" type="github">
  <diagram name="第 1 页" id="GVCAm89ngi2S6Au0s29Z">
    <mxGraphModel dx="410" dy="467" grid="0" gridSize="10" guides="1" tooltips="1" connect="1" arrows="1" fold="1" page="0" pageScale="1" pageWidth="827" pageHeight="1169" math="0" shadow="0">
      <root>
        <mxCell id="0" />
        <mxCell id="1" parent="0" />
        <mxCell id="W9AwbFqoZxwPxP3fuZyO-15" value="" style="strokeWidth=2;html=1;shape=mxgraph.flowchart.annotation_1;align=left;pointerEvents=1;" vertex="1" parent="1">
          <mxGeometry x="661" y="396" width="50" height="100" as="geometry" />
        </mxCell>
        <mxCell id="W9AwbFqoZxwPxP3fuZyO-32" value="" style="endArrow=none;html=1;rounded=0;" edge="1" parent="1">
          <mxGeometry width="50" height="50" relative="1" as="geometry">
            <mxPoint x="474" y="840" as="sourcePoint" />
            <mxPoint x="476" y="725" as="targetPoint" />
          </mxGeometry>
        </mxCell>
        <mxCell id="W9AwbFqoZxwPxP3fuZyO-33" value="" style="endArrow=none;html=1;rounded=0;" edge="1" parent="1">
          <mxGeometry width="50" height="50" relative="1" as="geometry">
            <mxPoint x="476" y="727" as="sourcePoint" />
            <mxPoint x="568" y="803" as="targetPoint" />
          </mxGeometry>
        </mxCell>
        <mxCell id="W9AwbFqoZxwPxP3fuZyO-34" value="" style="endArrow=none;html=1;rounded=0;" edge="1" parent="1">
          <mxGeometry width="50" height="50" relative="1" as="geometry">
            <mxPoint x="567" y="803" as="sourcePoint" />
            <mxPoint x="567" y="753" as="targetPoint" />
          </mxGeometry>
        </mxCell>
        <mxCell id="W9AwbFqoZxwPxP3fuZyO-35" value="" style="endArrow=none;html=1;rounded=0;" edge="1" parent="1">
          <mxGeometry width="50" height="50" relative="1" as="geometry">
            <mxPoint x="568" y="754" as="sourcePoint" />
            <mxPoint x="644" y="878" as="targetPoint" />
          </mxGeometry>
        </mxCell>
        <mxCell id="W9AwbFqoZxwPxP3fuZyO-36" value="" style="endArrow=none;html=1;rounded=0;" edge="1" parent="1">
          <mxGeometry width="50" height="50" relative="1" as="geometry">
            <mxPoint x="644" y="877" as="sourcePoint" />
            <mxPoint x="644" y="718" as="targetPoint" />
          </mxGeometry>
        </mxCell>
        <mxCell id="W9AwbFqoZxwPxP3fuZyO-37" value="" style="endArrow=none;html=1;rounded=0;" edge="1" parent="1">
          <mxGeometry width="50" height="50" relative="1" as="geometry">
            <mxPoint x="645" y="718" as="sourcePoint" />
            <mxPoint x="693" y="824" as="targetPoint" />
          </mxGeometry>
        </mxCell>
      </root>
    </mxGraphModel>
  </diagram>
</mxfile>
